<?xml version="1.0" encoding="utf-8"?>
<!-- Generator: Adobe Illustrator 22.0.1, SVG Export Plug-In . SVG Version: 6.00 Build 0)  -->
<svg version="1.1" id="americanexpress" xmlns="http://www.w3.org/2000/svg" xmlns:xlink="http://www.w3.org/1999/xlink" x="0px"
	 y="0px" viewBox="0 0 524 341" style="enable-background:new 0 0 524 341;" xml:space="preserve">
<style type="text/css">
	.st0{fill:#016FD0;}
	.st1{fill-rule:evenodd;clip-rule:evenodd;fill:#FFFFFF;}
	.st2{fill-rule:evenodd;clip-rule:evenodd;fill:#016FD0;}
</style>
<path id="outline" class="st0" d="M500,9.5H24c-6.6,0-12,5.4-12,12v298c0,6.6,5.4,12,12,12h476c6.6,0,12-5.4,12-12v-298
	C512,14.9,506.6,9.5,500,9.5z"/>
<g id="logo">
	<g>
		<path class="st1" d="M138.8,249.8v-63.2h66.9l7.2,9.4l7.4-9.4h250v58.9c0,0-13.4,4.3-20.7,4.4H315.1l-8.1-10v10h-26.5v-17
			c0,0-3.6,2.4-11.5,2.4h-9v14.6h-40.2l-7.2-9.6l-7.3,9.6L138.8,249.8L138.8,249.8z"/>
		<path class="st1" d="M60.6,138.9l15.1-35.2h26.1l8.6,19.7v-19.7h32.5l5.1,14.2l4.9-14.2h145.7v7.2c0,0,7.7-7.2,20.2-7.2l47.3,0.2
			l8.4,19.5v-19.6h27.2l7.5,11.2v-11.2h27.4v63.2h-27.4l-7.2-11.2v11.2h-39.9l-4-10h-10.7l-3.9,10h-27.1c-10.8,0-17.8-7-17.8-7v7
			h-40.8l-8.1-10v10H98l-4-10H83.3l-4,10H48.6L60.6,138.9L60.6,138.9z"/>
		<path class="st2" d="M81.1,111.5l-20.4,47.3H74l3.8-9.5h21.8l3.7,9.5h13.5l-20.3-47.3H81.1L81.1,111.5z M88.6,122.5l6.7,16.6H81.9
			L88.6,122.5L88.6,122.5z"/>
		<polygon class="st2" points="118.3,158.8 118.3,111.5 137.1,111.5 148.1,142.1 158.8,111.5 177.4,111.5 177.4,158.8 165.6,158.8 
			165.6,123.9 153.1,158.8 142.7,158.8 130.1,123.9 130.1,158.8 118.3,158.8 		"/>
		<polygon class="st2" points="185.5,158.8 185.5,111.5 224.2,111.5 224.2,122.1 197.5,122.1 197.5,130.2 223.5,130.2 223.5,140.1 
			197.5,140.1 197.5,148.5 224.2,148.5 224.2,158.8 185.5,158.8 		"/>
		<path class="st2" d="M231,111.5v47.3h11.8V142h5l14.2,16.8h14.5l-15.6-17.4c6.4-0.5,13-6,13-14.5c0-10-7.8-15.4-16.5-15.4H231
			L231,111.5z M242.8,122.1h13.5c3.2,0,5.6,2.5,5.6,5c0,3.1-3.1,5-5.4,5h-13.7L242.8,122.1L242.8,122.1L242.8,122.1z"/>
		<polygon class="st2" points="290.8,158.8 278.7,158.8 278.7,111.5 290.8,111.5 290.8,158.8 		"/>
		<path class="st2" d="M319.5,158.8h-2.6c-12.6,0-20.3-9.9-20.3-23.5c0-13.9,7.6-23.9,23.5-23.9h13.1v11.2h-13.6
			c-6.5,0-11,5-11,12.8c0,9.2,5.2,13,12.8,13h3.1L319.5,158.8L319.5,158.8z"/>
		<path class="st2" d="M345.2,111.5l-20.4,47.3h13.3l3.8-9.5h21.8l3.7,9.5H381l-20.3-47.3H345.2L345.2,111.5z M352.8,122.5l6.7,16.6
			h-13.3L352.8,122.5L352.8,122.5z"/>
		<polygon class="st2" points="382.4,158.8 382.4,111.5 397.4,111.5 416.6,141.2 416.6,111.5 428.5,111.5 428.5,158.8 413.9,158.8 
			394.2,128.3 394.2,158.8 382.4,158.8 		"/>
		<polygon class="st2" points="146.9,241.7 146.9,194.3 185.5,194.3 185.5,204.9 158.9,204.9 158.9,213 184.9,213 184.9,223 
			158.9,223 158.9,231.4 185.5,231.4 185.5,241.7 146.9,241.7 		"/>
		<polygon class="st2" points="336.2,241.7 336.2,194.3 374.8,194.3 374.8,204.9 348.1,204.9 348.1,213 374,213 374,223 348.1,223 
			348.1,231.4 374.8,231.4 374.8,241.7 336.2,241.7 		"/>
		<polygon class="st2" points="187,241.7 205.8,218.3 186.6,194.3 201.5,194.3 213,209.1 224.5,194.3 238.8,194.3 219.8,218 
			238.6,241.7 223.7,241.7 212.6,227.1 201.7,241.7 187,241.7 		"/>
		<path class="st2" d="M240,194.3v47.3h12.1v-15h12.5c10.5,0,18.5-5.6,18.5-16.5c0-9-6.3-15.9-17-15.9H240L240,194.3z M252.2,205
			h13.1c3.4,0,5.8,2.1,5.8,5.5c0,3.2-2.4,5.5-5.9,5.5h-13.1V205L252.2,205L252.2,205z"/>
		<path class="st2" d="M288.3,194.3v47.3h11.8v-16.8h5l14.2,16.8h14.5l-15.6-17.4c6.4-0.5,13-6,13-14.5c0-10-7.8-15.4-16.5-15.4
			L288.3,194.3L288.3,194.3L288.3,194.3z M300.2,204.9h13.5c3.2,0,5.6,2.5,5.6,5c0,3.1-3.1,5-5.4,5h-13.7V204.9L300.2,204.9z"/>
		<path class="st2" d="M380.3,241.7v-10.3h23.7c3.5,0,5-1.9,5-4c0-2-1.5-4-5-4h-10.7c-9.3,0-14.5-5.7-14.5-14.2
			c0-7.6,4.7-14.9,18.6-14.9h23l-5,10.7h-19.9c-3.8,0-5,2-5,3.9c0,2,1.4,4.1,4.4,4.1H406c10.4,0,14.9,5.9,14.9,13.6
			c0,8.3-5,15.1-15.4,15.1L380.3,241.7L380.3,241.7z"/>
		<path class="st2" d="M423.7,241.7v-10.3h22.7c3.5,0,5-1.9,5-4c0-2-1.5-4-5-4h-9.7c-9.3,0-14.5-5.7-14.5-14.2
			c0-7.6,4.7-14.9,18.6-14.9h22.6l-5,10.7h-19.5c-3.8,0-5,2-5,3.9c0,2,1.4,4.1,4.4,4.1h10.2c10.4,0,14.9,5.9,14.9,13.6
			c0,8.3-5,15.1-15.4,15.1L423.7,241.7L423.7,241.7z"/>
	</g>
</g>
</svg>
