<svg width="427" height="84" viewBox="0 0 427 84" fill="none" xmlns="http://www.w3.org/2000/svg">
<path d="M423.065 1H301.209C299.52 1 298.137 2.38 298.137 4.06667V80.2224C298.137 81.9091 299.52 83.2891 301.209 83.2891H423.065C424.755 83.2891 426.137 81.9091 426.137 80.2224V4.06667C426.137 2.38 424.755 1 423.065 1Z" fill="#016FD0"/>
<path d="M423.065 1H301.209C299.52 1 298.137 2.38 298.137 4.06667V80.2224C298.137 81.9091 299.52 83.2891 301.209 83.2891H423.065C424.755 83.2891 426.137 81.9091 426.137 80.2224V4.06667C426.137 2.38 424.755 1 423.065 1ZM423.577 77.6668C423.577 79.3535 422.195 80.7335 420.505 80.7335H303.769C302.08 80.7335 300.697 79.3535 300.697 77.6668V6.62223C300.697 4.93556 302.08 3.55556 303.769 3.55556H420.505C422.195 3.55556 423.577 4.93556 423.577 6.62223V77.6668Z" fill="#016FD0"/>
<path fill-rule="evenodd" clip-rule="evenodd" d="M330.461 61.8282V45.8301H347.587L349.43 48.2095L351.325 45.8301H415.325V60.7397C415.325 60.7397 411.894 61.8282 410.025 61.8535H375.593L373.52 59.3221V61.8535H366.736V57.5502C366.736 57.5502 365.814 58.1577 363.792 58.1577H361.488V61.8535H351.197L349.353 59.4234L347.485 61.8535L330.461 61.8282Z" fill="white"/>
<path fill-rule="evenodd" clip-rule="evenodd" d="M310.442 33.7555L314.307 24.8452H320.989L323.19 29.832V24.8452H331.51L332.816 28.4397L334.07 24.8452H371.37V26.6678C371.37 26.6678 373.341 24.8452 376.541 24.8452L388.65 24.8958L390.8 29.832V24.8705H397.763L399.683 27.7056V24.8705H406.698V40.8686H399.683L397.84 38.0335V40.8686H387.626L386.602 38.3373H383.862L382.864 40.8686H375.926C373.162 40.8686 371.37 39.0967 371.37 39.0967V40.8686H360.925L358.851 38.3373V40.8686H320.016L318.992 38.3373H316.253L315.229 40.8686H307.37L310.442 33.7555Z" fill="white"/>
<path fill-rule="evenodd" clip-rule="evenodd" d="M315.69 26.8197L310.467 38.7929H313.872L314.845 36.3882H320.426L321.373 38.7929H324.829L319.632 26.8197H315.69ZM317.61 29.6042L319.325 33.8062H315.894L317.61 29.6042Z" fill="#016FD0"/>
<path fill-rule="evenodd" clip-rule="evenodd" d="M325.213 38.7929V26.8197H330.026L332.842 34.5656L335.581 26.8197H340.342V38.7929H337.322V29.9586L334.122 38.7929H331.459L328.234 29.9586V38.7929H325.213Z" fill="#016FD0"/>
<path fill-rule="evenodd" clip-rule="evenodd" d="M342.416 38.7929V26.8197H352.323V29.5029H345.488V31.5533H352.144V34.0593H345.488V36.1857H352.323V38.7929H342.416Z" fill="#016FD0"/>
<path fill-rule="evenodd" clip-rule="evenodd" d="M354.064 26.8197V38.7929H357.085V34.5403H358.365L362 38.7929H365.712L361.718 34.3884C363.357 34.2618 365.046 32.8696 365.046 30.718C365.046 28.1866 363.05 26.8197 360.822 26.8197H354.064ZM357.085 29.5029H360.541C361.36 29.5029 361.974 30.1358 361.974 30.7686C361.974 31.5533 361.181 32.0343 360.592 32.0343H357.085V29.5029Z" fill="#016FD0"/>
<path fill-rule="evenodd" clip-rule="evenodd" d="M369.373 38.7929H366.275V26.8197H369.373V38.7929Z" fill="#016FD0"/>
<path fill-rule="evenodd" clip-rule="evenodd" d="M376.72 38.7929H376.054C372.829 38.7929 370.858 36.2868 370.858 32.8442C370.858 29.3257 372.803 26.7943 376.874 26.7943H380.227V29.6294H376.746C375.082 29.6294 373.93 30.8951 373.93 32.8695C373.93 35.1984 375.261 36.1603 377.206 36.1603H378L376.72 38.7929Z" fill="#016FD0"/>
<path fill-rule="evenodd" clip-rule="evenodd" d="M383.299 26.8197L378.077 38.7929H381.482L382.454 36.3882H388.035L388.982 38.7929H392.464L387.267 26.8197H383.299ZM385.245 29.6042L386.96 33.8062H383.555L385.245 29.6042Z" fill="#016FD0"/>
<path fill-rule="evenodd" clip-rule="evenodd" d="M392.822 38.7929V26.8197H396.662L401.578 34.3378V26.8197H404.624V38.7929H400.886L395.843 31.0724V38.7929H392.822Z" fill="#016FD0"/>
<path fill-rule="evenodd" clip-rule="evenodd" d="M332.534 59.7777V47.7792H342.416V50.4624H335.606V52.5128H342.262V55.0441H335.606V57.1704H342.416V59.7777H332.534Z" fill="#016FD0"/>
<path fill-rule="evenodd" clip-rule="evenodd" d="M380.995 59.7777V47.7792H390.877V50.4624H384.042V52.5128H390.672V55.0441H384.042V57.1704H390.877V59.7777H380.995Z" fill="#016FD0"/>
<path fill-rule="evenodd" clip-rule="evenodd" d="M342.8 59.7777L347.613 53.8544L342.698 47.7792H346.512L349.456 51.5256L352.4 47.7792H356.061L351.197 53.7785L356.01 59.7777H352.195L349.354 56.082L346.563 59.7777H342.8Z" fill="#016FD0"/>
<path fill-rule="evenodd" clip-rule="evenodd" d="M356.368 47.7791V59.7523H359.466V55.9553H362.666C365.354 55.9553 367.402 54.5378 367.402 51.7786C367.402 49.5004 365.789 47.7538 363.05 47.7538H356.368V47.7791ZM359.491 50.4876H362.845C363.715 50.4876 364.33 51.0192 364.33 51.8799C364.33 52.6899 363.715 53.2721 362.819 53.2721H359.466V50.4876H359.491Z" fill="#016FD0"/>
<path fill-rule="evenodd" clip-rule="evenodd" d="M368.733 47.7792V59.7524H371.753V55.4998H373.033L376.669 59.7524H380.381L376.387 55.3479C378.025 55.2213 379.715 53.8291 379.715 51.6774C379.715 49.1461 377.718 47.7792 375.491 47.7792H368.733ZM371.779 50.4624H375.235C376.054 50.4624 376.669 51.0952 376.669 51.7281C376.669 52.5128 375.875 52.9937 375.286 52.9937H371.779V50.4624Z" fill="#016FD0"/>
<path fill-rule="evenodd" clip-rule="evenodd" d="M392.285 59.7777V57.1704H398.352C399.248 57.1704 399.632 56.6895 399.632 56.1579C399.632 55.6516 399.248 55.1454 398.352 55.1454H395.613C393.232 55.1454 391.901 53.7025 391.901 51.5509C391.901 49.6271 393.104 47.7792 396.662 47.7792H402.55L401.27 50.4877H396.176C395.203 50.4877 394.896 50.994 394.896 51.4749C394.896 51.9812 395.254 52.5128 396.022 52.5128H398.864C401.526 52.5128 402.678 54.0063 402.678 55.9554C402.678 58.0564 401.398 59.7777 398.736 59.7777H392.285Z" fill="#016FD0"/>
<path fill-rule="evenodd" clip-rule="evenodd" d="M403.395 59.7777V57.1704H409.206C410.102 57.1704 410.486 56.6895 410.486 56.1579C410.486 55.6516 410.102 55.1454 409.206 55.1454H406.723C404.342 55.1454 403.011 53.7025 403.011 51.5509C403.011 49.6271 404.214 47.7792 407.773 47.7792H413.558L412.278 50.4877H407.286C406.314 50.4877 406.006 50.994 406.006 51.4749C406.006 51.9812 406.365 52.5128 407.133 52.5128H409.744C412.406 52.5128 413.558 54.0063 413.558 55.9554C413.558 58.0564 412.278 59.7777 409.616 59.7777H403.395Z" fill="#016FD0"/>
<path d="M274.065 0H152.209C150.52 0 149.137 1.38 149.137 3.06667V79.2224C149.137 80.9091 150.52 82.2891 152.209 82.2891H274.065C275.755 82.2891 277.137 80.9091 277.137 79.2224V3.06667C277.137 1.38 275.755 0 274.065 0Z" fill="white"/>
<path d="M274.065 0H152.209C150.52 0 149.137 1.38 149.137 3.06667V79.2224C149.137 80.9091 150.52 82.2891 152.209 82.2891H274.065C275.755 82.2891 277.137 80.9091 277.137 79.2224V3.06667C277.137 1.38 275.755 0 274.065 0ZM274.577 76.6668C274.577 78.3535 273.195 79.7335 271.505 79.7335H154.769C153.08 79.7335 151.697 78.3535 151.697 76.6668V5.62223C151.697 3.93556 153.08 2.55556 154.769 2.55556H271.505C273.195 2.55556 274.577 3.93556 274.577 5.62223V76.6668Z" fill="#EEEEEE"/>
<path d="M229.384 23.9572C220.885 23.9572 214.894 28.4778 214.843 34.9141C214.792 39.6902 219.118 42.3719 222.37 43.9555C225.723 45.5901 226.85 46.6117 226.85 48.0675C226.824 50.2895 224.162 51.3111 221.704 51.3111C218.274 51.3111 216.43 50.8003 213.614 49.5744L212.488 49.038L211.285 56.4704C213.307 57.3898 217.019 58.2071 220.885 58.2327C229.922 58.2327 235.784 53.763 235.861 46.8926C235.886 43.1126 233.608 40.2265 228.642 37.8512C225.646 36.3188 223.778 35.2972 223.803 33.7392C223.803 32.36 225.365 30.8787 228.744 30.8787C231.56 30.8276 233.582 31.4661 235.17 32.1557L235.938 32.5388L237.115 25.3363C235.4 24.6978 232.712 23.9572 229.384 23.9572ZM202.658 24.5446L197.282 57.7729H205.883L211.259 24.5446H202.658ZM190.062 24.5701L181.64 47.2246L180.744 42.6273C178.645 36.9829 174.114 31.0574 168.814 28.6566L176.52 57.7474H185.634L199.176 24.5701H190.062ZM252.501 24.5701C250.453 24.5701 248.891 25.1576 247.995 27.3285L235.221 57.7729H244.258C244.258 57.7729 245.742 53.6609 246.075 52.767C247.074 52.767 255.829 52.7925 257.083 52.7925C257.339 53.9418 258.133 57.7729 258.133 57.7729H266.12L259.157 24.5701H252.501ZM253.115 33.5349L253.678 36.3954C253.678 36.3954 255.342 44.3386 255.675 45.9987H248.533C249.25 44.0832 251.963 36.7019 251.963 36.7019C251.912 36.8041 252.68 34.7864 253.115 33.5349Z" fill="#0023A0"/>
<path d="M173.832 24.5701H159.957L159.88 25.132C170.658 27.8903 177.774 34.6331 180.744 42.6273L177.723 27.354C177.211 25.2597 175.701 24.6211 173.832 24.5701Z" fill="#FFAB00"/>
<path d="M125.065 0H3.20945C1.51985 0 0.137451 1.38 0.137451 3.06667V79.2224C0.137451 80.9091 1.51985 82.2891 3.20945 82.2891H125.065C126.755 82.2891 128.137 80.9091 128.137 79.2224V3.06667C128.137 1.38 126.755 0 125.065 0Z" fill="white"/>
<path d="M125.065 0H3.20945C1.51985 0 0.137451 1.38 0.137451 3.06667V79.2224C0.137451 80.9091 1.51985 82.2891 3.20945 82.2891H125.065C126.755 82.2891 128.137 80.9091 128.137 79.2224V3.06667C128.137 1.38 126.755 0 125.065 0ZM125.577 76.6668C125.577 78.3535 124.195 79.7335 122.505 79.7335H5.76945C4.07985 79.7335 2.69745 78.3535 2.69745 76.6668V5.62223C2.69745 3.93556 4.07985 2.55556 5.76945 2.55556H122.505C124.195 2.55556 125.577 3.93556 125.577 5.62223V76.6668Z" fill="#EEEEEE"/>
<path d="M65.5 66C72.4036 66 78 55.2548 78 42C78 28.7452 72.4036 18 65.5 18C58.5964 18 53 28.7452 53 42C53 55.2548 58.5964 66 65.5 66Z" fill="#EA610A"/>
<path d="M53.8393 42.0205C53.8393 32.3114 58.3885 23.6724 65.4477 18.061C60.2187 13.9372 53.6301 11.4578 46.4664 11.4578C29.5767 11.4578 15.8767 25.134 15.8767 41.9944C15.8767 58.8548 29.5767 72.5311 46.4664 72.5311C53.6301 72.5311 60.2187 70.0516 65.4477 65.9279C58.3624 60.3686 53.8393 51.7296 53.8393 42.0205Z" fill="#E20D17"/>
<path d="M112.953 58.5417V57.6543H112.587V57.4194H113.581V57.6543H113.215V58.5417H112.953ZM114.862 58.5417V57.7587L114.6 58.4373H114.313L114.051 57.7587V58.5417H113.79V57.3933H114.182L114.47 58.1241L114.757 57.3933H115.149V58.5417H114.862Z" fill="#F59E00"/>
<path d="M84.4291 11.4839C77.2653 11.4839 70.6768 13.9634 65.4478 18.0871C72.5331 23.6725 77.0562 32.3376 77.0562 42.0466C77.0562 51.7557 72.5069 60.3947 65.4478 66.0062C70.6768 70.1299 77.2653 72.6094 84.4291 72.6094C101.319 72.6094 115.019 58.9332 115.019 42.0727C115.019 25.2123 101.319 11.4839 84.4291 11.4839Z" fill="#F59E00"/>
</svg>
