<svg width="128" height="128" viewBox="0 0 128 128" fill="none" xmlns="http://www.w3.org/2000/svg">
<circle cx="64" cy="64" r="64" fill="#692493" fill-opacity="0.13"/>
<path fill-rule="evenodd" clip-rule="evenodd" d="M99.3726 33.9154C101.718 33.9154 103.967 34.7223 105.626 36.1584C107.284 37.5946 108.216 39.5425 108.216 41.5735V87.5223C108.216 89.5533 107.284 91.5012 105.626 92.9374C103.967 94.3735 101.718 95.1804 99.3726 95.1804H28.6262C26.2808 95.1804 24.0315 94.3735 22.373 92.9374C20.7146 91.5012 19.7829 89.5533 19.7829 87.5223V41.5735C19.7829 39.5425 20.7146 37.5946 22.373 36.1584C24.0315 34.7223 26.2808 33.9154 28.6262 33.9154H99.3726ZM52.9453 64.5479H44.102C41.2955 64.5475 38.5939 65.4716 36.5452 67.1327C34.4965 68.7937 33.2541 71.0675 33.07 73.4926L33.0479 74.1206V76.0351C33.0491 77.011 33.4806 77.9497 34.2543 78.6594C35.0279 79.3691 36.0853 79.7961 37.2104 79.8533C38.3354 79.9105 39.4432 79.5935 40.3075 78.9671C41.1717 78.3407 41.7271 77.4522 41.8602 76.4831L41.8912 76.0351V74.1206C41.891 73.6725 42.0723 73.2385 42.4036 72.8943C42.7348 72.55 43.195 72.3173 43.704 72.2367L44.102 72.206H52.9453C53.4627 72.2059 53.9639 72.3629 54.3614 72.6498C54.7589 72.9366 55.0276 73.3352 55.1207 73.7759L55.1561 74.1206V76.0351C55.1574 77.011 55.5889 77.9497 56.3626 78.6594C57.1362 79.3691 58.1936 79.7961 59.3186 79.8533C60.4437 79.9105 61.5515 79.5935 62.4157 78.9671C63.28 78.3407 63.8354 77.4522 63.9685 76.4831L63.9994 76.0351V74.1206C63.9999 71.6902 62.9328 69.3507 61.0146 67.5765C59.0965 65.8024 56.4709 64.7265 53.6704 64.5671L52.9453 64.5479ZM90.5293 68.377H72.8427L72.3254 68.4038C71.2507 68.5145 70.2602 68.9626 69.5416 69.6634C68.8229 70.3642 68.426 71.2688 68.426 72.206C68.426 73.1432 68.8229 74.0479 69.5416 74.7487C70.2602 75.4494 71.2507 75.8976 72.3254 76.0083L72.8427 76.0351H90.5293L91.0467 76.0083C92.1214 75.8976 93.1118 75.4494 93.8305 74.7487C94.5491 74.0479 94.9461 73.1432 94.9461 72.206C94.9461 71.2688 94.5491 70.3642 93.8305 69.6634C93.1118 68.9626 92.1214 68.5145 91.0467 68.4038L90.5293 68.377ZM81.686 56.8898H72.8427C71.7157 56.8909 70.6318 57.2646 69.8123 57.9345C68.9928 58.6045 68.4996 59.5202 68.4336 60.4944C68.3675 61.4687 68.7336 62.4281 69.4569 63.1765C70.1802 63.9249 71.2063 64.4058 72.3254 64.5211L72.8427 64.5479H81.686C82.813 64.5468 83.897 64.1731 84.7165 63.5032C85.536 62.8332 86.0291 61.9175 86.0952 60.9432C86.1612 59.969 85.7952 59.0096 85.0719 58.2612C84.3485 57.5128 83.3225 57.0319 82.2034 56.9166L81.686 56.8898ZM48.5236 49.2317C46.4714 49.2317 44.5033 49.9376 43.0521 51.1943C41.601 52.451 40.7857 54.1553 40.7857 55.9325C40.7857 57.7097 41.601 59.4141 43.0521 60.6707C44.5033 61.9274 46.4714 62.6334 48.5236 62.6334C50.5759 62.6334 52.544 61.9274 53.9952 60.6707C55.4463 59.4141 56.2615 57.7097 56.2615 55.9325C56.2615 54.1553 55.4463 52.451 53.9952 51.1943C52.544 49.9376 50.5759 49.2317 48.5236 49.2317Z" fill="#692493"/>
</svg>
