<svg id="Layer_1" data-name="Layer 1" xmlns="http://www.w3.org/2000/svg" viewBox="0 0 478.68 217.52"><defs><style>.cls-1{fill:#ff3a00;}</style></defs><title>powered_by_uepa</title><path d="M107.55,26.79c0,9.7-7.28,15.12-16.41,15.12H81.7v16.6h-8V11.6H91.14C100.21,11.6,107.55,17,107.55,26.79ZM81.7,18.55V35h8.68c5.49,0,9.06-2.81,9.06-8.17s-3.64-8.24-9.06-8.24Z" transform="translate(-10 -10)"/><path d="M143.49,42.49c0,9.64-7.09,16.66-16.73,16.66S110,52.13,110,42.49s7.09-16.79,16.72-16.79S143.49,32.79,143.49,42.49Zm-25.66,0c0,5.74,3.76,9.89,8.93,9.89s9-4.15,9-9.89-3.83-10-9-10S117.83,36.68,117.83,42.49Z" transform="translate(-10 -10)"/><path d="M177.32,59.15h-.26l-8.87-17.62-8.87,17.62h-.26l-14.8-32.81h8.61l7,17.11,8.23-17.11h.26l8.23,17.11,7-17.11h8.56Z" transform="translate(-10 -10)"/><path d="M223.41,42.11v2.68H200.69c.19,5.1,3.25,7.91,8.61,7.91a9.59,9.59,0,0,0,8-3.7l5.3,4.34c-3.19,3.83-7.41,5.81-13.34,5.81-10,0-16.34-7-16.34-16.66s6.51-16.79,15.76-16.79C218.56,25.7,223.41,33.11,223.41,42.11ZM200.69,39.3h15.19c-.2-4.41-2.75-7.47-7.34-7.47A7.48,7.48,0,0,0,200.69,39.3Z" transform="translate(-10 -10)"/><path d="M246.9,33.36h-.64c-3.89,0-6.38,2-8.43,4.85v20.3h-7.65V26.34h6.89l.38,4.28a10.94,10.94,0,0,1,9.45-4.92Z" transform="translate(-10 -10)"/><path d="M280.09,42.11v2.68H257.37c.19,5.1,3.25,7.91,8.61,7.91a9.59,9.59,0,0,0,8-3.7l5.3,4.34c-3.19,3.83-7.4,5.81-13.34,5.81-10,0-16.34-7-16.34-16.66s6.51-16.79,15.77-16.79C275.24,25.7,280.09,33.11,280.09,42.11ZM257.37,39.3h15.19c-.19-4.41-2.75-7.47-7.34-7.47A7.49,7.49,0,0,0,257.37,39.3Z" transform="translate(-10 -10)"/><path d="M316.47,58.51h-6.89l-.38-3.77c-1.79,2.43-5,4.41-9.89,4.41-8.75,0-14.69-7.09-14.69-16.73s5.94-16.72,14.69-16.72c4.72,0,7.72,1.79,9.5,3.83V10h7.66ZM292.41,42.42c0,6.07,3.58,10,8.55,10,3.83,0,6.13-2,7.85-4.79V37.25c-1.72-2.74-4-4.78-7.85-4.78C296,32.47,292.41,36.36,292.41,42.42Z" transform="translate(-10 -10)"/><path d="M348.26,29.53c1.73-2,4.79-3.83,9.51-3.83,8.69,0,14.62,7,14.62,16.72s-5.93,16.73-14.62,16.73c-4.85,0-8.16-2-9.95-4.41l-.32,3.77h-6.89V10h7.65Zm0,7.72V47.59c1.66,2.75,4,4.79,7.86,4.79,5,0,8.55-3.89,8.55-10s-3.58-10-8.55-10C352.29,32.47,349.92,34.51,348.26,37.25Z" transform="translate(-10 -10)"/><path d="M383.63,73.19h-8.81l11.62-21.26-13-25.59H382l8.62,18,8.61-18h8.62Z" transform="translate(-10 -10)"/><path class="cls-1" d="M111.52,191.13H80.63V179.52h-.39c-6.69,14-20.07,15.15-28.33,15.15-6.69,0-22.43-1.58-32.07-13.78C11.18,170.07,10,162.2,10,147.25V81.93H42.66v60.4c0,7.48,0,21.84,17.51,21.84,9.45,0,18.69-4.92,18.69-22.23v-60h32.66Z" transform="translate(-10 -10)"/><path class="cls-1" d="M231.93,156.89c-5.31,12.2-13,21.64-22.23,27.94a53.09,53.09,0,0,1-31.09,9.84,57.94,57.94,0,0,1-57.84-57.85c0-30.49,24-58.63,57.25-58.63s57.65,26.36,57.65,59.62a44.16,44.16,0,0,1-.79,8.65H153c2,13,12.79,20.66,25.58,20.66,10,0,15.35-4.52,19.87-10.23ZM203,124.43c-1.38-6.5-7.87-18.69-24.79-18.69s-23.42,12.19-24.79,18.69Z" transform="translate(-10 -10)"/><path class="cls-1" d="M245.31,81.93H276v12h.59c6.49-8.26,17.31-15.74,34-15.74,38.76,0,53.32,34,53.32,59.42,0,31.48-22,57.25-53.12,57.25-19.68,0-28.93-9.44-32.86-13.57v46.23H245.31Zm86,54.69c0-13-9.45-27.93-27.35-27.93s-27.35,15-27.35,27.93c0,13.78,10.23,27.75,27.35,27.75S331.29,150.4,331.29,136.62Z" transform="translate(-10 -10)"/><path class="cls-1" d="M488.68,191.13H456V179.32h-.39c-5.51,10.62-19.09,15.54-31.87,15.54-34.63,0-54.9-27.15-54.9-58.43,0-35.81,25.78-58.24,54.9-58.24,17.9,0,27.93,8.66,31.87,15.35H456V81.93h32.66Zm-60-26.76c20.47,0,27.35-17.32,27.35-27.94,0-13.18-9-27.74-27.54-27.74-18.69,0-27,15.74-27,28.13C401.52,147.05,409,164.37,428.67,164.37Z" transform="translate(-10 -10)"/></svg>