<svg width="17" height="22" viewBox="0 0 17 22" fill="none" xmlns="http://www.w3.org/2000/svg">
<path d="M2 22C1.45 22 0.979167 21.8042 0.5875 21.4125C0.195833 21.0208 0 20.55 0 20V2C0 1.45 0.195833 0.979167 0.5875 0.5875C0.979167 0.195833 1.45 0 2 0H12C12.55 0 13.0208 0.195833 13.4125 0.5875C13.8042 0.979167 14 1.45 14 2V5H2V17H14V20C14 20.55 13.8042 21.0208 13.4125 21.4125C13.0208 21.8042 12.55 22 12 22H2ZM2 20H12V19H2V20ZM2 3H12V2H2V3ZM9.5 15C9.08333 15 8.72917 14.8542 8.4375 14.5625C8.14583 14.2708 8 13.9167 8 13.5V9.5C8 9.08333 8.14583 8.72917 8.4375 8.4375C8.72917 8.14583 9.08333 8 9.5 8H10.5L11.5 7H13.5L14.5 8H15.5C15.9167 8 16.2708 8.14583 16.5625 8.4375C16.8542 8.72917 17 9.08333 17 9.5V13.5C17 13.9167 16.8542 14.2708 16.5625 14.5625C16.2708 14.8542 15.9167 15 15.5 15H9.5ZM12.5 13.25C12.9833 13.25 13.3958 13.0792 13.7375 12.7375C14.0792 12.3958 14.25 11.9833 14.25 11.5C14.25 11.0167 14.0792 10.6042 13.7375 10.2625C13.3958 9.92083 12.9833 9.75 12.5 9.75C12.0167 9.75 11.6042 9.92083 11.2625 10.2625C10.9208 10.6042 10.75 11.0167 10.75 11.5C10.75 11.9833 10.9208 12.3958 11.2625 12.7375C11.6042 13.0792 12.0167 13.25 12.5 13.25Z" fill="#5F0F78"/>
</svg>
