<svg width="128" height="128" viewBox="0 0 128 128" fill="none" xmlns="http://www.w3.org/2000/svg">
<circle cx="64" cy="64" r="64" fill="#692493" fill-opacity="0.13"/>
<path d="M64.2735 28.4444C43.275 28.4444 26.2564 41.0174 26.2564 56.547C26.2564 67.5246 34.7954 77.0092 47.2104 81.6344L38.9238 103.385L62.7588 84.591C63.2637 84.6057 63.7537 84.6496 64.2735 84.6496C85.272 84.6496 102.291 72.0766 102.291 56.547C102.291 41.0174 85.272 28.4444 64.2735 28.4444ZM45.265 62.7969C41.7751 62.7969 38.9238 60.0013 38.9238 56.547C38.9238 53.0927 41.7603 50.2971 45.265 50.2971C48.7548 50.2971 51.6061 53.0927 51.6061 56.547C51.6061 60.0013 48.7548 62.7969 45.265 62.7969ZM64.2735 62.7969C60.7837 62.7969 57.9324 60.0013 57.9324 56.547C57.9324 53.0927 60.7688 50.2971 64.2735 50.2971C67.7634 50.2971 70.6146 53.0927 70.6146 56.547C70.6146 60.0013 67.7634 62.7969 64.2735 62.7969ZM83.282 62.7969C79.7922 62.7969 76.9409 60.0013 76.9409 56.547C76.9409 53.0927 79.7773 50.2971 83.282 50.2971C86.7719 50.2971 89.6232 53.0927 89.6232 56.547C89.6232 60.0013 86.7719 62.7969 83.282 62.7969Z" fill="#692493"/>
</svg>
