<svg width="64" height="auto" viewBox="0 0 256 137" fill="none" xmlns="http://www.w3.org/2000/svg">
<path d="M47.7227 85.1019C47.5466 85.6956 46.8574 85.9572 46.3291 85.6302C43.4314 83.8341 40.2519 82.9336 36.8007 82.9336C30.5373 82.9336 25.28 85.9219 21.034 91.8885C16.788 97.8602 14.6649 104.481 14.6649 111.745C14.6649 116.449 15.822 120.207 18.1312 123.019C20.4404 125.832 23.6551 127.235 27.7753 127.235C33.3143 127.235 37.822 125.932 41.2983 123.326C41.9271 122.853 42.8176 123.306 42.8025 124.091L42.6465 131.149C42.6415 131.421 42.5208 131.678 42.3145 131.854C38.3753 135.124 32.7911 136.754 25.5618 136.754C18.9361 136.754 13.5883 134.575 9.52341 130.219C5.45848 125.862 3.42601 120.202 3.42601 113.245C3.42601 101.996 6.55017 92.5576 12.8035 84.9309C19.0518 77.3041 27.2169 73.4907 37.2937 73.4907C41.8869 73.4907 45.9921 74.19 49.6193 75.5936C50.0671 75.7697 50.3035 76.2627 50.1677 76.7255L47.7176 85.0919V85.1019H47.7227Z" fill="#5F0F78"/>
<path d="M84.8252 135.763H76.2979C75.7093 135.763 75.2666 135.224 75.3773 134.646C75.5282 133.861 74.6931 133.262 73.9988 133.655C70.598 135.587 66.5179 136.552 61.7588 136.552C57.9152 136.552 54.9017 135.451 52.7183 133.252C50.5349 131.054 49.4382 128.005 49.4382 124.106C49.4382 122.884 49.5891 121.45 49.896 119.805L55.1381 91.7577C55.2186 91.315 55.6111 90.993 56.0588 90.993H64.7571C65.3458 90.993 65.7885 91.5263 65.6778 92.1049L60.5815 119.392C60.3602 120.59 60.2495 121.606 60.2495 122.441C60.2495 126.058 62.282 127.869 66.3469 127.869C69.6572 127.869 72.4342 126.793 74.678 124.634C76.9167 122.476 78.3153 119.88 78.8737 116.847L83.3311 91.7728C83.4115 91.3251 83.7989 90.9981 84.2567 90.9981H92.8243C93.4129 90.9981 93.8556 91.5313 93.7449 92.1099L85.7408 135.003C85.6603 135.446 85.2679 135.768 84.8202 135.768L84.8252 135.763Z" fill="#5F0F78"/>
<path d="M93.2267 118.975C93.2267 110.9 95.6919 104.078 100.617 98.5142C105.542 92.945 111.781 90.163 119.327 90.163C125.092 90.163 129.529 91.6621 132.649 94.6505C135.768 97.6438 137.327 101.895 137.327 107.409C137.327 115.649 134.892 122.567 130.017 128.161C125.147 133.755 118.854 136.552 111.142 136.552C105.492 136.552 101.09 135.043 97.9457 132.02C94.8014 129.001 93.2267 124.649 93.2267 118.97V118.975ZM104.083 118.472C104.083 124.846 106.825 128.035 112.309 128.035C116.65 128.035 120.091 126.023 122.622 122.003C125.158 117.979 126.42 113.214 126.42 107.701C126.42 101.689 123.678 98.6802 118.195 98.6802C113.934 98.6802 110.518 100.662 107.942 104.632C105.366 108.596 104.078 113.214 104.078 118.477L104.083 118.472Z" fill="#5F0F78"/>
<path d="M168.579 99.3895H158.683C157.979 99.3895 157.37 99.8775 157.209 100.562L152.968 119.221C152.606 120.806 152.425 122.129 152.425 123.191C152.425 126.254 154.15 127.784 157.602 127.784C158.814 127.784 160.635 127.331 163.07 126.42C164.061 126.053 165.118 126.772 165.118 127.829V133.891C165.118 134.565 164.675 135.164 164.026 135.345C161.143 136.15 157.415 136.552 152.842 136.552C149.447 136.552 146.72 135.496 144.657 133.378C142.595 131.26 141.568 128.508 141.568 125.107C141.568 123.995 141.694 122.894 141.946 121.807L146.584 101.221C146.795 100.275 146.081 99.3795 145.11 99.3795H143.686C142.725 99.3795 142.011 98.4941 142.212 97.5533L143.364 92.1803C143.515 91.4861 144.129 90.988 144.838 90.988H147.55C148.274 90.988 148.898 90.4749 149.034 89.7655L150.392 82.6871C150.493 82.1639 150.86 81.7363 151.358 81.5552L159.881 78.4562C161.007 78.0487 162.139 79.0498 161.868 80.217L159.795 89.1417C159.574 90.0875 160.293 90.993 161.264 90.993H169.736C170.697 90.993 171.411 91.8785 171.21 92.8192L170.058 98.1922C169.907 98.8864 169.293 99.3845 168.584 99.3845H168.579V99.3895Z" fill="#5F0F78"/>
<path d="M209.122 119.684C208.926 120.715 208.831 121.857 208.831 123.11C208.831 127.859 209.117 131.451 209.686 133.891C209.902 134.832 209.178 135.722 208.212 135.722H203.74C202.255 135.722 201.058 134.857 200.152 133.121C199.71 132.271 198.613 132.02 197.863 132.618C194.583 135.244 190.654 136.552 186.071 136.552C181.226 136.552 177.473 135.189 174.817 132.462C172.156 129.736 170.828 125.932 170.828 121.062C170.828 112.57 173.393 105.301 178.53 99.2436C183.666 93.1865 190.146 90.163 197.969 90.163C204.63 90.163 209.651 90.7063 213.031 91.7879C213.761 92.0193 214.199 92.7589 214.058 93.5085L209.117 119.684H209.122ZM197.053 98.6802C192.375 98.6802 188.647 100.914 185.86 105.381C183.078 109.849 181.684 114.995 181.684 120.811C181.684 125.625 184.049 128.035 188.783 128.035C191.791 128.035 194.412 126.184 196.656 122.481C198.809 118.924 200.736 111.725 202.437 100.884C202.562 100.099 202.054 99.3392 201.279 99.1682C199.805 98.8412 198.397 98.6802 197.053 98.6802Z" fill="#5F0F78"/>
<path d="M248.162 101.553C247.734 102.393 246.648 102.645 245.903 102.071C243.106 99.9228 240.515 98.8462 238.125 98.8462C236.4 98.8462 234.901 99.2436 233.638 100.039C232.37 100.833 231.736 101.895 231.736 103.233C231.736 104.878 233.245 106.463 236.269 107.992C239.287 109.522 241.607 110.744 243.222 111.645C244.837 112.55 246.16 113.773 247.191 115.317C248.222 116.862 248.735 118.638 248.735 120.64C248.735 125.565 246.889 129.449 243.201 132.291C239.514 135.129 234.8 136.552 229.065 136.552C224.643 136.552 220.311 135.431 216.07 133.182C215.315 132.779 215.044 131.828 215.476 131.089L219.29 124.529C219.753 123.729 220.829 123.523 221.539 124.111C224.562 126.617 227.53 127.864 230.448 127.864C232.566 127.864 234.312 127.336 235.69 126.279C237.069 125.223 237.758 123.789 237.758 121.978C237.758 120.474 236.45 119.04 233.834 117.677C231.218 116.313 228.909 115.066 226.902 113.939C224.899 112.812 223.375 111.433 222.328 109.803C221.287 108.173 220.764 106.372 220.764 104.395C220.764 100.054 222.494 96.5924 225.961 94.0166C229.427 91.4408 233.678 90.1529 238.719 90.1529C241.848 90.1529 245.818 91.1138 250.637 93.0305C251.462 93.3575 251.829 94.3285 251.427 95.1183L248.172 101.548H248.162V101.553Z" fill="#5F0F78"/>
<path d="M191.957 82.9588C194.407 82.9588 196.389 80.9766 196.389 78.5266C196.389 76.0766 194.407 74.0944 191.957 74.0944C189.507 74.0944 187.525 76.0766 187.525 78.5266C187.525 80.9766 189.507 82.9588 191.957 82.9588Z" fill="#5F0F78"/>
<path d="M210.682 82.9588C213.132 82.9588 215.114 80.9766 215.114 78.5266C215.114 76.0766 213.132 74.0944 210.682 74.0944C208.232 74.0944 206.25 76.0766 206.25 78.5266C206.25 80.9766 208.232 82.9588 210.682 82.9588Z" fill="#5F0F78"/>
<path d="M229.407 82.9588C231.857 82.9588 233.839 80.9766 233.839 78.5266C233.839 76.0766 231.857 74.0944 229.407 74.0944C226.957 74.0944 224.975 76.0766 224.975 78.5266C224.975 80.9766 226.957 82.9588 229.407 82.9588Z" fill="#5F0F78"/>
<path d="M248.132 82.9588C250.582 82.9588 252.564 80.9766 252.564 78.5266C252.564 76.0766 250.582 74.0944 248.132 74.0944C245.682 74.0944 243.7 76.0766 243.7 78.5266C243.7 80.9766 245.682 82.9588 248.132 82.9588Z" fill="#5F0F78"/>
<path d="M54.293 60.4004H37.7716V54.1924H37.5604C33.9834 61.6632 26.8295 62.292 22.4074 62.292C18.8305 62.292 10.4139 61.4519 5.25724 54.9269C0.633887 49.1414 0 44.9356 0 36.9365V2.00228H17.4671V34.3054C17.4671 38.3049 17.4671 45.987 26.8295 45.987C31.8805 45.987 36.8258 43.3559 36.8258 34.0991V2.00228H54.293V60.4004Z" fill="#EF4123"/>
<path d="M118.688 42.0931C115.845 48.6182 111.745 53.6691 106.8 57.0348C101.96 60.5061 96.1698 62.2971 90.173 62.2971C73.4404 62.2971 59.2383 48.7238 59.2383 31.3623C59.2383 15.0523 72.077 0.00503085 89.8561 0.00503085C107.635 0.00503085 120.685 14.1065 120.685 31.8855C120.685 34.1997 120.474 35.1455 120.263 36.5139H76.4891C77.5405 43.4565 83.331 47.5617 90.168 47.5617C95.5359 47.5617 98.3733 45.1418 100.793 42.0881H118.688V42.0931ZM103.218 24.7317C102.484 21.2604 99.0072 14.7354 89.9617 14.7354C80.9162 14.7354 77.4399 21.2604 76.7054 24.7317H103.223H103.218Z" fill="#EF4123"/>
<path d="M125.842 2.00228H142.257V8.42165H142.574C146.046 4.00456 151.836 0.00503085 160.776 0.00503085C181.503 0.00503085 189.291 18.2067 189.291 31.7799C189.291 48.6131 177.504 62.3977 160.882 62.3977C150.362 62.3977 145.412 57.3467 143.309 55.1381V79.2812L125.842 79.8648V2.00228ZM171.824 31.2567C171.824 24.3141 166.773 16.3151 157.199 16.3151C147.625 16.3151 142.574 24.3141 142.574 31.2567C142.574 38.6219 148.048 46.0927 157.199 46.0927C166.35 46.0927 171.824 38.6219 171.824 31.2567Z" fill="#EF4123"/>
<path d="M256 60.4004H238.533V54.0867H238.322C235.373 59.7665 228.114 62.3977 221.277 62.3977C202.758 62.3977 191.922 47.8786 191.922 31.146C191.922 11.9936 205.707 0 221.277 0C230.851 0 236.219 4.62838 238.322 8.20532H238.533V2.00228L256 1.93185V60.4004ZM223.908 46.0927C234.85 46.0927 238.533 36.8309 238.533 31.151C238.533 24.1028 233.693 16.3151 223.803 16.3151C213.912 16.3151 209.389 24.7317 209.389 31.3623C209.389 36.8359 213.389 46.0927 223.908 46.0927Z" fill="#EF4123"/>
</svg>